HIERARCHY
ROOT RootJoint
{
    OFFSET   0.000000   0.000000   0.000000
    CHANNELS 6 Xposition Yposition Zposition Xrotation Yrotation Zrotation
    JOINT pelvis_lowerback
    {
        OFFSET   0.000000   0.093605   0.000000
        CHANNELS 3 Xrotation Yrotation Zrotation
        JOINT lowerback_torso
        {
            OFFSET   0.000000   0.100000   0.000000
            CHANNELS 3 Xrotation Yrotation Zrotation
            JOINT torso_head
            {
                OFFSET   0.000000   0.282350   0.000000
                CHANNELS 3 Xrotation Yrotation Zrotation
                End Site
                {
                    OFFSET   0.000000   0.192650   0.000000
                }
            }
            JOINT rTorso_Clavicle
            {
                OFFSET  -0.001000   0.157500   0.000000
                CHANNELS 3 Xrotation Yrotation Zrotation
                JOINT rShoulder
                {
                    OFFSET  -0.117647   0.000000   0.000000
                    CHANNELS 3 Xrotation Yrotation Zrotation
                    JOINT rElbow
                    {
                        OFFSET  -0.245000   0.000000   0.000000
                        CHANNELS 3 Xrotation Yrotation Zrotation
                        JOINT rWrist
                        {
                            OFFSET  -0.240000   0.000000   0.000000
                            CHANNELS 3 Xrotation Yrotation Zrotation
                            End Site
                            {
                                OFFSET  -0.116353  -0.002500   0.000000
                            }
                        }
                    }
                }
            }
            JOINT lTorso_Clavicle
            {
                OFFSET   0.001000   0.157500   0.000000
                CHANNELS 3 Xrotation Yrotation Zrotation
                JOINT lShoulder
                {
                    OFFSET   0.117647   0.000000   0.000000
                    CHANNELS 3 Xrotation Yrotation Zrotation
                    JOINT lElbow
                    {
                        OFFSET   0.245000   0.000000   0.000000
                        CHANNELS 3 Xrotation Yrotation Zrotation
                        JOINT lWrist
                        {
                            OFFSET   0.240000   0.000000   0.000000
                            CHANNELS 3 Xrotation Yrotation Zrotation
                            End Site
                            {
                                OFFSET   0.116353  -0.002500   0.000000
                            }
                        }
                    }
                }
            }
        }
    }
    JOINT rHip
    {
        OFFSET  -0.100000  -0.051395   0.000000
        CHANNELS 3 Xrotation Yrotation Zrotation
        JOINT rKnee
        {
            OFFSET   0.000000  -0.410000   0.000000
            CHANNELS 3 Xrotation Yrotation Zrotation
            JOINT rAnkle
            {
                OFFSET   0.000000  -0.390000   0.000000
                CHANNELS 3 Xrotation Yrotation Zrotation
                JOINT rToeJoint
                {
                    OFFSET   0.000000  -0.050000   0.130000
                    CHANNELS 3 Xrotation Yrotation Zrotation
                    End Site
                    {
                        OFFSET  -0.010000   0.002000   0.060000
                    }
                }
            }
        }
    }
    JOINT lHip
    {
        OFFSET   0.100000  -0.051395   0.000000
        CHANNELS 3 Xrotation Yrotation Zrotation
        JOINT lKnee
        {
            OFFSET   0.000000  -0.410000   0.000000
            CHANNELS 3 Xrotation Yrotation Zrotation
            JOINT lAnkle
            {
                OFFSET   0.000000  -0.390000   0.000000
                CHANNELS 3 Xrotation Yrotation Zrotation
                JOINT lToeJoint
                {
                    OFFSET   0.000000  -0.050000   0.130000
                    CHANNELS 3 Xrotation Yrotation Zrotation
                    End Site
                    {
                        OFFSET   0.010000   0.002000   0.060000
                    }
                }
            }
        }
    }
}
MOTION
Frames: 12
Frame Time:   0.008333
 -2.376719   0.925631   3.975860   0.000000   0.000000   0.000000   0.000000   0.000000   0.000000   0.000000   0.000000   0.000000   0.000000   0.000000   0.000000   0.000000   0.000000   0.000000   0.000000   0.000000   0.000000   0.000000   0.000000   0.000000   0.000000   0.000000   0.000000   0.000000   0.000000   0.000000   0.000000   0.000000   0.000000   0.000000   0.000000   0.000000   0.000000   0.000000   0.000000   0.000000   0.000000   0.000000   0.000000   0.000000   0.000000   0.000000   0.000000   0.000000   0.000000   0.000000   0.000000   0.000000   0.000000   0.000000   0.000000   0.000000   0.000000   0.000000   0.000000   0.000000   0.000000   0.000000   0.000000
 -2.377985   0.925945   3.975214  -0.166907   0.848069  -0.901386   0.409008  -0.191390   0.645719  -0.039947  -0.340137   0.464593  -0.014526  -0.017511   0.103689   0.041355  -0.679267  -0.424353  -1.462586  -0.479441   2.054634   0.032594   2.061494   0.021663   0.010838  -0.283208  -2.816138   0.260255  -0.317574  -0.657169   0.839757   0.106340  -2.013702   0.007889  -0.365676   0.004166   0.044967   0.061372   3.233267  -0.115486  -0.420780   1.188440   1.379738  -0.003402   0.005217  -1.778753  -0.778100  -0.710973   0.414693   0.001486  -0.001297  -1.092674  -0.324547   1.286731   3.383233  -0.011203   0.016427  -2.607477   0.065831  -0.455074   0.084024   0.000035   0.000440
 -2.379813   0.926432   3.974965  -0.443388   1.807591  -1.863416   0.824497  -0.399303   1.254794   0.012529  -0.761937   0.949285   0.014798  -0.022924   0.268746   0.072440  -1.430747  -0.262159  -2.823420  -1.021076   4.415074   0.069418   4.026208   0.037392   0.006287  -0.060057  -5.033389   0.506200  -0.660770  -2.002510   1.672757   0.153504  -4.600386   0.018193  -0.720038   0.007255   0.134473   0.027941   5.807016  -0.065056  -0.802791   2.514421   2.878639  -0.007043   0.012013  -3.454925  -1.486414  -1.396275   0.685642   0.001898  -0.001390  -2.119437  -0.628101   2.806531   7.089599  -0.024803   0.038824  -5.028302   0.157735  -0.874429   0.139878  -0.000055   0.000748
 -2.381923   0.926720   3.975102  -0.727785   2.739473  -2.742250   1.184789  -0.614185   1.747980   0.066522  -1.193643   1.346808   0.054297  -0.025467   0.439500   0.110689  -2.173273   0.297903  -4.067099  -1.613169   6.911056   0.101093   5.853345   0.048794   0.007209   0.204458  -6.554370   0.722389  -0.994656  -3.742363   2.492952   0.156680  -7.549706   0.028303  -1.052322   0.009179   0.228509  -0.043152   7.563522   0.048205  -1.146652   3.789822   4.334173  -0.009817   0.017528  -5.025571  -2.126213  -2.053303   0.928647   0.002034  -0.001274  -3.048740  -0.925306   4.356037  10.721316  -0.036390   0.059149  -7.280843   0.264895  -1.259412   0.212048  -0.000240   0.001145
 -2.384167   0.926563   3.975554  -0.993315   3.594656  -3.522185   1.485735  -0.826722   2.125264   0.097198  -1.612808   1.642973   0.091882  -0.027262   0.601783   0.160082  -2.890359   1.097093  -5.194262  -2.245415   9.433861   0.124287   7.548300   0.057010   0.002160   0.411570  -7.560529   0.910092  -1.307250  -5.700943   3.301869   0.118985 -10.745607   0.037018  -1.361119   0.010233   0.320059  -0.122962   8.695567   0.182877  -1.460004   4.982321   5.712359  -0.011698   0.021099  -6.498614  -2.705687  -2.681735   1.147612   0.002017  -0.001147  -3.873736  -1.219639   5.888961  14.141342  -0.044995   0.074655  -9.381061   0.381270  -1.612222   0.279303  -0.000436   0.001420
 -2.386440   0.925785   3.976243  -1.237444   4.362378  -4.212049   1.737309  -1.034342   2.398755   0.103822  -2.013269   1.844466   0.124554  -0.028952   0.753221   0.222030  -3.577796   2.023539  -6.209706  -2.907351  11.910068   0.138491   9.119599   0.062704  -0.013284   0.547118  -8.224101   1.072709  -1.595831  -7.764893   4.099926   0.038981 -14.111349   0.043896  -1.647292   0.010716   0.405747  -0.197860   9.385427   0.324987  -1.747537   6.091139   7.007553  -0.012859   0.022938  -7.880203  -3.231269  -3.281400   1.344901   0.001913  -0.001051  -4.608547  -1.512109   7.391424  17.346188  -0.050950   0.085465 -11.341218   0.503001  -1.935220   0.334987  -0.000590   0.001538
 -2.388669   0.924266   3.977101  -1.462954   5.042144  -4.823874   1.949541  -1.235576   2.581346   0.091577  -2.393346   1.961263   0.152284  -0.030693   0.893878   0.296346  -4.233804   3.001186  -7.120815  -3.587408  14.293164   0.144620  10.576668   0.066369  -0.039145   0.618322  -8.673507   1.213724  -1.861435  -9.859549   4.886309  -0.086035 -17.594578   0.048913  -1.912618   0.010854   0.484559  -0.263892   9.769987   0.468813  -2.011966   7.121669   8.221545  -0.013477   0.023422  -9.175731  -3.708345  -3.852359   1.523027   0.001762  -0.000990  -5.264542  -1.802225   8.856989  20.347606  -0.054730   0.092245 -13.170874   0.627398  -2.230708   0.380216  -0.000692   0.001540
 -2.391082   0.921369   3.977526  -1.666135   5.512154  -5.636813   2.225802  -1.271833   2.975740   0.113564  -2.750787   2.026243   0.003541  -0.027111   1.154355   0.314593  -4.769773   3.688823  -8.143976  -4.373159  16.175570   0.143980  12.401961   0.075372  -0.152390   0.246756  -8.466172   1.255685  -2.037650 -11.317919   5.172982  -0.153168 -21.121425   0.041418  -1.961252   0.008906   0.527578  -0.588359   9.260629   0.478158  -2.409076   8.435491   9.959886  -0.017245   0.021492 -10.827973  -4.215965  -4.511047   1.721867   0.001665  -0.001581  -6.094734  -2.081413  10.551589  23.367309  -0.058146   0.096292 -14.183335   0.732609  -2.354309   0.301642  -0.000036   0.000747
 -2.393477   0.917287   3.977863  -1.878027   5.869701  -6.419401   2.514261  -1.249580   3.318294   0.163684  -3.031109   2.060711  -0.135118  -0.026173   1.410411   0.325309  -5.237576   4.133517  -9.095454  -5.095399  17.775823   0.132755  14.130849   0.080384  -0.250408  -0.005365  -8.438664   1.294120  -2.172615 -12.544186   5.441752  -0.201177 -24.331809   0.034449  -1.991999   0.007257   0.537087  -0.834258   8.751666   0.579633  -2.788572   9.757152  11.669736  -0.020930   0.018765 -12.376067  -4.674627  -5.138231   1.885928   0.001461  -0.001975  -6.946125  -2.385966  12.183875  26.178004  -0.058950   0.096573 -15.116736   0.833474  -2.465436   0.297921  -0.000006   0.000577
 -2.395808   0.912131   3.978138  -2.084242   6.152557  -7.138842   2.797252  -1.184715   3.593223   0.225276  -3.247127   2.047530  -0.261301  -0.026332   1.648691   0.329551  -5.649901   4.406404  -9.981383  -5.763546  19.155861   0.116232  15.757619   0.082269  -0.331782  -0.168499  -8.621508   1.333856  -2.275981 -13.598730   5.697165  -0.238293 -27.265199   0.028369  -2.012561   0.005884   0.534467  -1.021397   8.385552   0.764608  -3.133954  11.039184  13.297367  -0.024010   0.016106 -13.824947  -5.087185  -5.734554   2.039974   0.001233  -0.002241  -7.820082  -2.709087  13.706526  28.772444  -0.057554   0.094472 -15.988371   0.928691  -2.566803   0.296385   0.000004   0.000454
 -2.397970   0.906334   3.978242  -2.270643   6.277005  -7.787308   3.068299  -1.047238   3.806768   0.286706  -3.380017   1.985579  -0.379276  -0.025732   1.867477   0.321626  -5.998950   4.572027 -10.811606  -6.371986  20.365748   0.098219  17.289041   0.081799  -0.398346  -0.251854  -8.968117   1.379278  -2.347130 -14.546589   5.941729  -0.264234 -29.970449   0.023096  -2.023476   0.004745   0.521641  -1.155294   8.139285   0.987663  -3.442627  12.249633  14.835488  -0.026534   0.012464 -15.179656  -5.457497  -6.299377   2.193241   0.001014  -0.002555  -8.688912  -3.102716  14.904430  31.193403  -0.052489   0.085667 -17.138021   0.826856  -2.800385  -3.119773   0.009923  -0.003202
 -2.400103   0.900076   3.978219  -2.425160   6.270075  -8.419584   3.313380  -0.860977   3.985567   0.344653  -3.446126   1.901221  -0.488818  -0.025029   2.070623   0.303140  -6.294626   4.664764 -11.589513  -6.927092  21.442950   0.080513  18.729552   0.079727  -0.452094  -0.268590  -9.410211   1.433148  -2.389439 -15.405160   6.177661  -0.280052 -32.475739   0.018570  -2.026147   0.003802   0.501390  -1.244021   7.967089   1.243664  -3.722717  13.444930  16.276457  -0.028601   0.008428 -16.446986  -5.790680  -6.833844   2.341088   0.000798  -0.002865  -9.514283  -3.485766  15.868413  33.560337  -0.045497   0.074194 -18.306811   0.691632  -3.047567  -7.099106   0.011932   0.000235
